# xmcd
#
# Track frame offsets:
#	150
#	17979
#	29626
#	47617
#	68181
#	79330
#	87983
#	102180
#	114571
#	128505
#	141772
#
# Disc length: 2105 seconds
# Revision: 0
# Processed by: cddbd v1.5.2PL0 Copyright (c) Steve Scherf et al.
# Submitted via: dBpowerAMP V12.0
#
DISCID=9208370b
DTITLE=Fred Eaglesmith - Tambourine
DYEAR=2013
DGENRE=Americana
TTITLE0=What It Takes
TTITLE1=Can't Dance
TTITLE2=Engineer
TTITLE3=That's What You Do
TTITLE4=Nobody Gets Everything
TTITLE5=Nobody's Friend
TTITLE6=Drunk Girl
TTITLE7=Small Town
TTITLE8=Sally Green
TTITLE9=Train Wreck
TTITLE10=Whip A Dog
EXTD=
EXTT0=
EXTT1=
EXTT2=
EXTT3=
EXTT4=
EXTT5=
EXTT6=
EXTT7=
EXTT8=
EXTT9=
EXTT10=
PLAYORDER=
